<svg width="16" height="16" viewBox="0 0 16 16" fill="none" xmlns="http://www.w3.org/2000/svg">
<path fill-rule="evenodd" clip-rule="evenodd" d="M1.33301 8.00378C1.33301 4.32409 4.32529 1.33325 7.99967 1.33325C11.6741 1.33325 14.6663 4.32409 14.6663 8.00378C14.6663 11.6758 11.6741 14.6666 7.99967 14.6666C4.32529 14.6666 1.33301 11.6758 1.33301 8.00378ZM10.445 8.67848C10.5158 8.60773 10.6059 8.49839 10.6252 8.47266C10.7281 8.33759 10.7796 8.17036 10.7796 8.00378C10.7796 7.81661 10.7217 7.64295 10.6123 7.50145C10.6033 7.49249 10.5858 7.47338 10.5629 7.44848C10.5201 7.40189 10.4586 7.33501 10.3999 7.27633C9.87226 6.71032 8.49517 5.78413 7.77445 5.50112C7.66505 5.45674 7.38835 5.35962 7.24034 5.35319C7.09877 5.35319 6.96364 5.38535 6.83494 5.44967C6.67406 5.53972 6.54536 5.68122 6.47458 5.84845C6.42953 5.96422 6.35875 6.31154 6.35875 6.31798C6.28796 6.69746 6.24935 7.31492 6.24935 7.9967C6.24935 8.64697 6.28796 9.23806 6.34588 9.62397C6.34747 9.62557 6.35301 9.65316 6.3616 9.69604C6.38775 9.8264 6.44221 10.098 6.50032 10.2093C6.64189 10.4794 6.91859 10.6466 7.2146 10.6466H7.24034C7.43339 10.6402 7.8388 10.473 7.8388 10.4666C8.52091 10.1835 9.86583 9.30238 10.4064 8.71708L10.445 8.67848Z" fill="white"/>
</svg>
