<svg width="21" height="20" viewBox="0 0 21 20" fill="none" xmlns="http://www.w3.org/2000/svg">
<path d="M9.82971 5.29052V1.2815C9.82971 0.855229 10.1697 0.5 10.5997 0.5C10.9847 0.5 11.3109 0.798491 11.3626 1.17658L11.3697 1.2815V5.29052L16.1496 5.29083C18.5296 5.29083 20.485 7.23978 20.5947 9.67041L20.5996 9.88609V14.9254C20.5996 17.373 18.7123 19.3822 16.3676 19.495L16.1596 19.5H5.03961C2.65961 19.5 0.713699 17.5608 0.604447 15.1213L0.599609 14.9047L0.599609 9.87576C0.599609 7.4281 2.47752 5.40921 4.8216 5.29585L5.02961 5.29083H9.82961V11.6932L8.22961 10.041C7.92961 9.73119 7.43961 9.73119 7.13961 10.041C6.98961 10.1959 6.91961 10.4024 6.91961 10.6089C6.91961 10.7659 6.96441 10.9295 7.05913 11.0679L7.13961 11.1666L10.0496 14.1819C10.1896 14.3368 10.3896 14.4194 10.5996 14.4194C10.7663 14.4194 10.9329 14.362 11.0649 14.2533L11.1396 14.1819L14.0496 11.1666C14.3496 10.8568 14.3496 10.3508 14.0496 10.041C13.7769 9.75936 13.3471 9.73375 13.0459 9.96418L12.9596 10.041L11.3696 11.6932V5.29083L9.82971 5.29052Z" fill="#E21221"/>
</svg>
