<svg width="21" height="20" viewBox="0 0 21 20" fill="none" xmlns="http://www.w3.org/2000/svg">
<path fill-rule="evenodd" clip-rule="evenodd" d="M0.399414 10C0.399414 4.48 4.86941 0 10.3994 0C15.9194 0 20.3994 4.48 20.3994 10C20.3994 15.53 15.9194 20 10.3994 20C4.86941 20 0.399414 15.53 0.399414 10ZM12.6294 11.83L14.2494 6.71C14.3594 6.36 14.0394 6.03 13.6894 6.14L8.56941 7.74C8.35941 7.81 8.18941 7.97 8.12941 8.18L6.52941 13.31C6.41941 13.65 6.74941 13.98 7.08941 13.87L12.1894 12.27C12.3994 12.21 12.5694 12.04 12.6294 11.83Z" fill="#E21221"/>
</svg>
