<svg width="20" height="20" viewBox="0 0 20 20" fill="none" xmlns="http://www.w3.org/2000/svg">
<path d="M6.93458 18.7733V15.7156C6.93458 14.9351 7.57198 14.3023 8.35824 14.3023H11.2324C11.61 14.3023 11.9721 14.4512 12.2391 14.7163C12.5061 14.9813 12.6561 15.3408 12.6561 15.7156V18.7733C12.6537 19.0978 12.7819 19.4099 13.0122 19.6402C13.2425 19.8705 13.5559 20 13.8827 20H15.8436C16.7594 20.0023 17.6386 19.6428 18.287 19.0008C18.9354 18.3588 19.2998 17.487 19.2998 16.5778V7.86686C19.2998 7.13246 18.9719 6.43584 18.4044 5.96467L11.7338 0.675869C10.5735 -0.251438 8.91092 -0.221498 7.7852 0.746979L1.26682 5.96467C0.672545 6.42195 0.317357 7.12064 0.299805 7.86686V16.5689C0.299805 18.4639 1.84719 20 3.75598 20H5.67209C6.35103 20 6.9028 19.4562 6.90772 18.7822L6.93458 18.7733Z" fill="#E21221"/>
</svg>
